<?xml version="1.0" standalone="no"?><svg xmlns="http://www.w3.org/2000/svg" viewBox="0 0 1440 320"><path fill="#00cba9" fill-opacity="1" d="M0,160L16,170.7C32,181,64,203,96,186.7C128,171,160,117,192,133.3C224,149,256,235,288,256C320,277,352,235,384,213.3C416,192,448,192,480,197.3C512,203,544,213,576,192C608,171,640,117,672,112C704,107,736,149,768,144C800,139,832,85,864,106.7C896,128,928,224,960,229.3C992,235,1024,149,1056,149.3C1088,149,1120,235,1152,261.3C1184,288,1216,256,1248,218.7C1280,181,1312,139,1344,112C1376,85,1408,75,1424,69.3L1440,64L1440,0L1424,0C1408,0,1376,0,1344,0C1312,0,1280,0,1248,0C1216,0,1184,0,1152,0C1120,0,1088,0,1056,0C1024,0,992,0,960,0C928,0,896,0,864,0C832,0,800,0,768,0C736,0,704,0,672,0C640,0,608,0,576,0C544,0,512,0,480,0C448,0,416,0,384,0C352,0,320,0,288,0C256,0,224,0,192,0C160,0,128,0,96,0C64,0,32,0,16,0L0,0Z"></path></svg>